<svg xmlns="http://www.w3.org/2000/svg" viewBox="0 0 32 32" fill="none">
  <!-- Vibeship sailboat logo - dark strokes for browser tab visibility -->
  <g stroke="#1a1a1a" stroke-width="2" fill="none" stroke-linecap="round" stroke-linejoin="round">
    <!-- Flag at top -->
    <path d="M16 2c-2.5 0.5-4 2-3 4s2.5 1.5 3 1"/>
    <!-- Main sail (large right triangle) -->
    <path d="M16 6v18"/>
    <path d="M16 6c7 5 9 12 9 16H16"/>
    <!-- Front sail (smaller left triangle) -->
    <path d="M16 9c-4 4-6 9-6 13h6"/>
    <!-- Waves below -->
    <path d="M3 27c2.5-1 5-1 7.5 0s5 1 7.5 0 5-1 7.5 0"/>
    <path d="M5 30c2-0.8 4-0.8 6 0s4 0.8 6 0 4-0.8 6 0"/>
  </g>
</svg>
