<svg xmlns="http://www.w3.org/2000/svg" viewBox="0 0 32 32" fill="none">
  <!-- Vibeship sailboat logo - dark strokes for favicon visibility -->
  <g stroke="#1a1a1a" stroke-width="1.5" fill="none" stroke-linecap="round" stroke-linejoin="round">
    <!-- Flag at top -->
    <path d="M16 3c-2 0.5-3 1.5-2.5 3s1.5 1.5 2.5 1"/>
    <!-- Main sail (right) -->
    <path d="M16 7v17M16 7c6 4 8 10 8 14H16"/>
    <!-- Front sail (left) -->
    <path d="M16 10c-3 3-5 7-5 11h5"/>
    <!-- Waves -->
    <path d="M4 26c2-1 4-1 6 0s4 1 6 0 4-1 6 0 4 1 6 0"/>
    <path d="M6 29c1.5-0.75 3-0.75 4.5 0s3 0.75 4.5 0 3-0.75 4.5 0 3 0.75 4.5 0"/>
  </g>
</svg>
